<svg width="532" height="666" viewBox="0 0 532 666" fill="none" xmlns="http://www.w3.org/2000/svg">
<path d="M269.384 0H270.116L267.802 5.24823H267.07L269.384 0Z" fill="#4B515B"/>
<path d="M264.41 0H265.142L262.829 5.24823H262.097L264.41 0Z" fill="#4B515B"/>
<path d="M281.551 16.8798H283.036V14.2004H281.765V13.6894H283.713V16.8798H285.197V17.3908H281.551V16.8798ZM282.856 12.1426H283.713V12.9989H282.856V12.1426Z" fill="#4B515B"/>
<path d="M277.303 17.2803L277.289 17.2734C277.102 17.1491 276.964 16.9765 276.868 16.7555C276.771 16.5345 276.723 16.279 276.723 15.9959V15.9821V13.6895H277.399V15.8785V15.8923C277.399 16.2583 277.475 16.5276 277.62 16.7072C277.765 16.8867 277.973 16.9765 278.242 16.9765C278.511 16.9765 278.718 16.8867 278.863 16.7072C279.008 16.5276 279.077 16.2514 279.077 15.8854V13.6964H279.754V17.3977H279.077V16.6588C278.995 16.8936 278.856 17.087 278.67 17.2389C278.484 17.3908 278.249 17.4668 277.973 17.4668C277.71 17.4668 277.489 17.4046 277.303 17.2803Z" fill="#4B515B"/>
<path d="M272.399 17.2744L272.371 17.233C272.088 17.1017 271.86 16.9084 271.687 16.6598C271.515 16.4112 271.404 16.1143 271.356 15.7759H272.081C272.122 16.1281 272.254 16.3905 272.475 16.57C272.696 16.7496 272.986 16.8393 273.338 16.8393C273.58 16.8393 273.787 16.7979 273.966 16.7219C274.146 16.646 274.284 16.5355 274.374 16.3974C274.463 16.2593 274.512 16.0935 274.512 15.9071C274.512 15.7206 274.47 15.5756 274.394 15.472C274.318 15.3685 274.208 15.2856 274.063 15.2303C273.918 15.1751 273.697 15.106 273.4 15.0301L272.792 14.8713C272.399 14.7677 272.088 14.6019 271.853 14.381C271.618 14.16 271.501 13.863 271.501 13.4901C271.501 13.2208 271.584 12.9722 271.743 12.7512C271.901 12.5303 272.116 12.3576 272.385 12.2333C272.654 12.109 272.951 12.0469 273.269 12.0469C273.607 12.0469 273.904 12.109 274.16 12.2264C274.415 12.3438 274.622 12.5095 274.781 12.7236C274.94 12.9377 275.044 13.1932 275.092 13.4832H274.367C274.298 13.1932 274.173 12.9791 273.987 12.841C273.801 12.7029 273.566 12.6338 273.283 12.6338C273.089 12.6338 272.91 12.6684 272.744 12.7374C272.578 12.8065 272.447 12.9032 272.35 13.0275C272.254 13.1518 272.205 13.2899 272.205 13.4487C272.205 13.6075 272.24 13.7387 272.309 13.8423C272.378 13.9459 272.482 14.0288 272.627 14.0909C272.772 14.1531 272.972 14.2221 273.227 14.2912L273.835 14.45C274.167 14.5398 274.436 14.6434 274.636 14.7608C274.836 14.8782 274.988 15.0232 275.085 15.2027C275.182 15.3823 275.23 15.6032 275.23 15.8726C275.23 16.1833 275.154 16.4595 274.995 16.7012C274.836 16.9429 274.615 17.1294 274.332 17.2675C274.049 17.4056 273.725 17.4746 273.359 17.4746C272.999 17.4746 272.682 17.4056 272.399 17.2744Z" fill="#4B515B"/>
<path d="M261.872 13.6901L262.569 13.6971V14.4429C262.659 14.2012 262.797 14.0009 262.983 13.849C263.17 13.6971 263.405 13.6211 263.688 13.6211C263.95 13.6211 264.178 13.6832 264.364 13.8144C264.551 13.9457 264.696 14.1183 264.793 14.3393C264.889 14.5603 264.938 14.8089 264.938 15.092V15.1058V17.3984H264.261V15.2094V15.1956C264.261 14.8296 264.185 14.5603 264.033 14.3807C263.881 14.2012 263.674 14.1114 263.405 14.1114C263.135 14.1114 262.928 14.2012 262.776 14.3807C262.624 14.5603 262.548 14.8365 262.548 15.2025V17.3915H261.872V13.6901Z" fill="#4B515B"/>
<path d="M257.458 17.2249H257.451C257.188 17.0661 256.988 16.8382 256.843 16.5481C256.698 16.2581 256.629 15.9197 256.629 15.5399C256.629 15.1601 256.698 14.8218 256.843 14.5317C256.988 14.2417 257.195 14.0138 257.458 13.855C257.72 13.6961 258.031 13.6133 258.383 13.6133C258.735 13.6133 259.046 13.6961 259.308 13.855C259.571 14.0138 259.771 14.2417 259.916 14.5317C260.061 14.8218 260.13 15.1601 260.13 15.5399C260.13 15.9197 260.061 16.2581 259.916 16.5481C259.771 16.8382 259.571 17.0661 259.308 17.2249C259.046 17.3837 258.735 17.4666 258.383 17.4666C258.031 17.4666 257.72 17.3837 257.458 17.2249ZM257.437 16.2995L257.43 16.3272C257.513 16.5412 257.637 16.707 257.796 16.8244C257.955 16.9418 258.148 16.997 258.376 16.997C258.604 16.997 258.797 16.9349 258.956 16.8175C259.115 16.7001 259.232 16.5343 259.315 16.3203C259.398 16.1062 259.439 15.8507 259.439 15.5606C259.439 15.2706 259.398 15.0151 259.315 14.801C259.232 14.587 259.115 14.4212 258.956 14.3038C258.797 14.1864 258.604 14.1243 258.376 14.1243C258.148 14.1243 257.955 14.1795 257.796 14.2969C257.637 14.4143 257.52 14.5801 257.437 14.7941C257.354 15.0082 257.313 15.2568 257.313 15.5468C257.313 15.8369 257.354 16.0855 257.437 16.2995Z" fill="#4B515B"/>
<path d="M247.628 17.2189L247.601 17.2327C247.345 17.067 247.152 16.8391 247.014 16.5491C246.876 16.259 246.807 15.9276 246.807 15.5547C246.807 15.1748 246.876 14.8434 247.014 14.5533C247.152 14.2633 247.352 14.0354 247.608 13.8697C247.863 13.704 248.167 13.6211 248.519 13.6211C248.858 13.6211 249.155 13.6971 249.41 13.849C249.666 14.0009 249.866 14.2219 250.011 14.505C250.156 14.7881 250.225 15.1127 250.225 15.4856C250.225 15.5339 250.218 15.6168 250.211 15.7342H247.497C247.525 16.1278 247.628 16.4317 247.808 16.6457C247.987 16.8598 248.229 16.9634 248.526 16.9634C248.775 16.9634 248.975 16.9081 249.127 16.7977C249.279 16.6872 249.389 16.5214 249.458 16.3074H250.149C250.045 16.6941 249.859 16.9841 249.583 17.1775C249.306 17.3708 248.961 17.4675 248.54 17.4675C248.188 17.4675 247.884 17.3846 247.628 17.2189ZM249.527 15.2439L249.521 15.2577C249.507 15.0436 249.458 14.8503 249.369 14.6776C249.279 14.505 249.161 14.3738 249.016 14.2771C248.871 14.1804 248.699 14.1321 248.505 14.1321C248.222 14.1321 247.994 14.2288 247.822 14.4152C247.649 14.6017 247.539 14.8779 247.497 15.2439H249.527Z" fill="#4B515B"/>
</svg>
